<svg xmlns="http://www.w3.org/2000/svg" xmlns:xlink="http://www.w3.org/1999/xlink" width="500" zoomAndPan="magnify" viewBox="0 0 375 112.499997" height="150" preserveAspectRatio="xMidYMid meet" version="1.0"><defs><g/><clipPath id="fc1ba3504a"><path d="M 63.804688 14.566406 L 146.6875 14.566406 L 146.6875 97.449219 L 63.804688 97.449219 Z M 63.804688 14.566406 " clip-rule="nonzero"/></clipPath><clipPath id="9b6b202d7b"><path d="M 65.761719 14.566406 L 141.175781 14.566406 L 141.175781 97.269531 L 65.761719 97.269531 Z M 65.761719 14.566406 " clip-rule="nonzero"/></clipPath><clipPath id="b4494c8661"><path d="M 13 0 L 163 0 L 163 110 L 13 110 Z M 13 0 " clip-rule="nonzero"/></clipPath><clipPath id="bd7f14b822"><path d="M 13.902344 55.285156 L 117.460938 -30.390625 L 162.199219 23.691406 L 58.644531 109.363281 Z M 13.902344 55.285156 " clip-rule="nonzero"/></clipPath><clipPath id="f0744d3ab5"><path d="M -29.6875 2.597656 L 73.871094 -83.074219 L 162.402344 23.933594 L 58.84375 109.605469 Z M -29.6875 2.597656 " clip-rule="nonzero"/></clipPath><clipPath id="c9ee126ea7"><path d="M 33.414062 0 L 182 0 L 182 14.664062 L 33.414062 14.664062 Z M 33.414062 0 " clip-rule="nonzero"/></clipPath><clipPath id="8141538b55"><path d="M 48.863281 0 L 63.796875 0 L 63.796875 112.003906 L 48.863281 112.003906 Z M 48.863281 0 " clip-rule="nonzero"/></clipPath><clipPath id="fcce8ac704"><path d="M 60.8125 0 L 75.746094 0 L 75.746094 112.003906 L 60.8125 112.003906 Z M 60.8125 0 " clip-rule="nonzero"/></clipPath><clipPath id="fd6d0351e5"><path d="M 15.492188 0 L 33.410156 0 L 33.410156 112.003906 L 15.492188 112.003906 Z M 15.492188 0 " clip-rule="nonzero"/></clipPath><clipPath id="5f4417bdb9"><path d="M 32.378906 0 L 51.046875 0 L 51.046875 112.003906 L 32.378906 112.003906 Z M 32.378906 0 " clip-rule="nonzero"/></clipPath><clipPath id="98b05e859a"><path d="M 147.222656 0 L 162.15625 0 L 162.15625 112.003906 L 147.222656 112.003906 Z M 147.222656 0 " clip-rule="nonzero"/></clipPath><clipPath id="a1753c0127"><path d="M 161.914062 0 L 176.847656 0 L 176.847656 112.003906 L 161.914062 112.003906 Z M 161.914062 0 " clip-rule="nonzero"/></clipPath><clipPath id="e84a473554"><rect x="0" width="174" y="0" height="67"/></clipPath></defs><g clip-path="url(#fc1ba3504a)"><path fill="#000000" d="M 63.804688 14.566406 L 146.675781 14.566406 L 146.675781 97.4375 L 63.804688 97.4375 Z M 63.804688 14.566406 " fill-opacity="1" fill-rule="nonzero"/><path fill="#000000" d="M 63.804688 14.566406 L 146.675781 14.566406 L 146.675781 97.4375 L 63.804688 97.4375 Z M 63.804688 14.566406 " fill-opacity="1" fill-rule="nonzero"/></g><g clip-path="url(#9b6b202d7b)"><path fill="#000000" d="M 65.761719 9.160156 L 153.859375 9.160156 L 153.859375 97.257812 L 65.761719 97.257812 Z M 65.761719 9.160156 " fill-opacity="1" fill-rule="nonzero"/></g><g clip-path="url(#b4494c8661)"><g clip-path="url(#bd7f14b822)"><g clip-path="url(#f0744d3ab5)"><path fill="#ffffff" d="M 162.035156 23.800781 L 58.632812 109.347656 L 55.179688 105.179688 L 158.585938 19.632812 Z M 149.171875 8.25 L 45.765625 93.800781 L 48.933594 97.628906 L 152.335938 12.078125 Z M 139.753906 -3.132812 L 36.347656 82.417969 L 39.238281 85.910156 L 142.640625 0.359375 Z M 130.339844 -14.511719 L 26.933594 71.039062 L 29.539062 74.1875 L 132.945312 -11.363281 Z M 120.921875 -25.894531 L 17.515625 59.65625 L 19.84375 62.464844 L 123.246094 -23.082031 Z M 111.507812 -37.273438 L 8.101562 48.273438 L 10.148438 50.746094 L 113.550781 -34.800781 Z M 102.089844 -48.65625 L -1.316406 36.890625 L 0.449219 39.023438 L 103.851562 -46.523438 Z M 92.675781 -60.035156 L -10.730469 25.511719 L -9.25 27.300781 L 94.15625 -58.246094 Z M 83.257812 -71.417969 L -20.148438 14.128906 L -18.945312 15.582031 L 84.460938 -69.964844 Z M 73.84375 -82.800781 L -29.5625 2.75 L -28.640625 3.859375 L 74.761719 -81.6875 Z M 73.84375 -82.800781 " fill-opacity="1" fill-rule="nonzero"/></g></g></g><g clip-path="url(#c9ee126ea7)"><path fill="#ffffff" d="M 33.453125 -0.269531 L 33.453125 14.558594 L 181.742188 14.558594 L 181.742188 -0.269531 Z M 33.453125 -0.269531 " fill-opacity="1" fill-rule="nonzero"/></g><g clip-path="url(#8141538b55)"><path fill="#ffffff" d="M 63.796875 -24.261719 L 48.550781 -24.261719 L 48.550781 128.226562 L 63.796875 128.226562 Z M 63.796875 -24.261719 " fill-opacity="1" fill-rule="nonzero"/></g><g clip-path="url(#fcce8ac704)"><path fill="#ffffff" d="M 75.746094 -12.703125 L 60.496094 -12.703125 L 60.496094 139.785156 L 75.746094 139.785156 Z M 75.746094 -12.703125 " fill-opacity="1" fill-rule="nonzero"/></g><g clip-path="url(#fd6d0351e5)"><path fill="#ffffff" d="M 33.410156 -39.738281 L 15.769531 -39.738281 L 15.769531 136.667969 L 33.410156 136.667969 Z M 33.410156 -39.738281 " fill-opacity="1" fill-rule="nonzero"/></g><g clip-path="url(#5f4417bdb9)"><path fill="#ffffff" d="M 51.046875 -39.699219 L 32.183594 -39.699219 L 32.183594 148.957031 L 51.046875 148.957031 Z M 51.046875 -39.699219 " fill-opacity="1" fill-rule="nonzero"/></g><g clip-path="url(#98b05e859a)"><path fill="#ffffff" d="M 162.15625 -0.265625 L 146.90625 -0.265625 L 146.90625 152.222656 L 162.15625 152.222656 Z M 162.15625 -0.265625 " fill-opacity="1" fill-rule="nonzero"/></g><g clip-path="url(#a1753c0127)"><path fill="#ffffff" d="M 176.847656 -12.703125 L 161.601562 -12.703125 L 161.601562 139.785156 L 176.847656 139.785156 Z M 176.847656 -12.703125 " fill-opacity="1" fill-rule="nonzero"/></g><g transform="matrix(1, 0, 0, 1, 156, 33)"><g clip-path="url(#e84a473554)"><g fill="#000000" fill-opacity="1"><g transform="translate(0.329928, 52.685528)"><g><path d="M 9.984375 -4.328125 L 29.03125 -4.328125 L 29.03125 0 L 4.65625 0 L 4.65625 -40.171875 L 9.984375 -40.171875 Z M 9.984375 -4.328125 "/></g></g></g><g fill="#000000" fill-opacity="1"><g transform="translate(28.081979, 52.685528)"><g><path d="M 10.34375 0 L 5.046875 0 L 5.046875 -40.171875 L 10.34375 -40.171875 Z M 10.34375 0 "/></g></g></g><g fill="#000000" fill-opacity="1"><g transform="translate(40.795142, 52.685528)"><g><path d="M 35.546875 0 L 30.21875 0 L 9.984375 -30.96875 L 9.984375 0 L 4.65625 0 L 4.65625 -40.171875 L 9.984375 -40.171875 L 30.265625 -9.078125 L 30.265625 -40.171875 L 35.546875 -40.171875 Z M 35.546875 0 "/></g></g></g><g fill="#000000" fill-opacity="1"><g transform="translate(78.425953, 52.685528)"><g><path d="M 27.375 -18.578125 L 9.96875 -18.578125 L 9.96875 -4.328125 L 30.1875 -4.328125 L 30.1875 0 L 4.65625 0 L 4.65625 -40.171875 L 29.90625 -40.171875 L 29.90625 -35.8125 L 9.96875 -35.8125 L 9.96875 -22.90625 L 27.375 -22.90625 Z M 27.375 -18.578125 "/></g></g></g><g fill="#000000" fill-opacity="1"><g transform="translate(107.88885, 52.685528)"><g><path d="M 26.84375 -10.484375 L 10.015625 -10.484375 L 6.234375 0 L 0.765625 0 L 16.109375 -40.171875 L 20.75 -40.171875 L 36.125 0 L 30.6875 0 Z M 11.625 -14.84375 L 25.28125 -14.84375 L 18.4375 -33.640625 Z M 11.625 -14.84375 "/></g></g></g><g fill="#000000" fill-opacity="1"><g transform="translate(142.097967, 52.685528)"><g><path d="M 9.984375 -4.328125 L 29.03125 -4.328125 L 29.03125 0 L 4.65625 0 L 4.65625 -40.171875 L 9.984375 -40.171875 Z M 9.984375 -4.328125 "/></g></g></g></g></g></svg>